<?xml version="1.0" ?><svg xmlns="http://www.w3.org/2000/svg" xmlns:xlink="http://www.w3.org/1999/xlink" version="1.1" viewBox="0 0 64 64" style="enable-background:new 0 0 64 64;" xml:space="preserve"><g id="basket"/><g id="ketchup"/><g id="burger"/><g id="eggplant"/><g id="clamp"/><g id="chicken_leg"/><g id="hot_dog"/><g id="beer"/><g id="bread"/><g id="shrimp"/><g id="pepper"/><g id="mushroom"/><g id="wine"/><g id="sausage"/><g id="ribs"/><g id="chicken"><g><path d="M53.5,32.3l-2.1-0.2c0.3-1.1,0.5-2.3,0.5-3.3c0-0.2,0-0.4,0-0.7c0.1,0,0.2-0.1,0.2-0.1l2.9-2.9c0.6,0.4,1.4,0.6,2.1,0.6    c1,0,2-0.4,2.8-1.2c0.8-0.8,1.2-1.8,1.2-2.8s-0.4-2.1-1.2-2.8c-0.5-0.5-1.1-0.8-1.8-1c-0.2-0.7-0.5-1.3-1-1.8    c-1.6-1.5-4.1-1.5-5.7,0c-0.8,0.8-1.2,1.8-1.2,2.8c0,0.7,0.2,1.4,0.6,2l-2.9,2.9c-0.1,0.1-0.1,0.1-0.1,0.2    c-3.6-0.3-8.5,2.1-11.2,4.2L30,23.6c-2.4-1.7-5.2-2.6-8.1-2.6H17C9.3,21,3,27.3,3,35c0,4,1.7,7.5,4.3,10.1C4.3,45.8,3,46.8,3,48    c0,4.9,26,5,29,5s29-0.1,29-5c0-1-0.8-1.6-1.9-2.1c1.2-1.5,1.9-3.3,1.9-5.3C61,36.3,57.8,32.8,53.5,32.3z M52.8,21.8    C52.8,21.8,52.8,21.8,52.8,21.8C52.8,21.8,52.8,21.8,52.8,21.8C52.8,21.8,52.8,21.7,52.8,21.8c0.1-0.2,0.2-0.2,0.2-0.3    c0,0,0-0.1,0-0.2c0-0.1,0-0.1,0-0.2c0-0.1,0-0.1,0-0.2c0-0.1,0-0.1,0-0.2c0-0.1-0.1-0.2-0.2-0.2c0,0,0-0.1-0.1-0.1c0,0,0,0,0,0    c0,0,0,0,0,0c-0.4-0.4-0.6-0.9-0.6-1.4c0-0.5,0.2-1,0.6-1.4c0.8-0.8,2.1-0.8,2.8,0c0.3,0.3,0.5,0.8,0.6,1.3c0,0.5,0.4,0.9,1,0.9    c0.5,0,1,0.2,1.3,0.6c0.4,0.4,0.6,0.9,0.6,1.4c0,0.5-0.2,1-0.6,1.4c-0.7,0.7-1.9,0.8-2.7,0.1c0-0.1-0.1-0.2-0.2-0.2    c-0.4-0.4-1-0.4-1.4,0l-3,3c-0.2-0.3-0.4-0.5-0.6-0.7c-0.2-0.2-0.5-0.4-0.8-0.6L52.8,21.8z M49.2,26.7c0.4,0.4,0.7,1.2,0.7,2.1    c0,1.1-0.3,2.4-0.8,3.7c0,0,0,0,0,0c-0.9,2.5-2.4,5.1-3.8,6.4c-2.5,2.5-6.5,2.7-8.8,0.4c-1.1-1.1-1.7-2.5-1.7-4.1    c0-1.7,0.7-3.4,2-4.7c2.2-2.2,7.2-4.5,10.3-4.5C48,26.1,48.8,26.3,49.2,26.7z M5,35c0-6.6,5.4-12,12-12h4.8c2.5,0,5,0.8,7,2.2    l6.2,4.4c-1.4,1.6-2.2,3.6-2.2,5.6c0,2.1,0.8,4,2.2,5.5c1.5,1.5,3.5,2.2,5.5,2.2c2.2,0,4.4-0.9,6.2-2.6c1.4-1.4,2.9-3.8,3.9-6.3    l2.6,0.3c3.3,0.3,5.7,3,5.7,6.3c0,1.7-0.7,3.3-1.9,4.5c-1.2,1.2-2.8,1.9-4.5,1.9H17C10.4,47,5,41.6,5,35z M32,51    c-15.3,0-25.2-1.7-26.9-3c0.4-0.3,1.4-0.8,4.2-1.3c2.2,1.5,4.9,2.3,7.7,2.3h35.7c1.8,0,3.5-0.6,4.9-1.6c0.7,0.3,1.1,0.5,1.3,0.6    C57.2,49.3,47.3,51,32,51z"/><path d="M17,45h12c0.4,0,0.7-0.2,0.9-0.6c0.2-0.3,0.1-0.7-0.1-1C27.7,40.6,24.4,39,21,39h-2.6c-3.8,0-7.3-1.7-9.6-4.6    c-0.3-0.3-0.7-0.5-1.1-0.3S7,34.6,7,35C7,40.5,11.5,45,17,45z M18.4,41H21c2.1,0,4.1,0.7,5.7,2H17c-3.4,0-6.3-2.1-7.4-5    C12.1,39.9,15.1,41,18.4,41z"/><path d="M17.9,16l-0.8,1.6c-0.2,0.5,0,1.1,0.4,1.3C17.7,19,17.8,19,18,19c0.4,0,0.7-0.2,0.9-0.6l1-2c0.1-0.3,0.1-0.6,0-0.9    L19.1,14l0.8-1.6c0.2-0.5,0-1.1-0.4-1.3s-1.1,0-1.3,0.4l-1,2c-0.1,0.3-0.1,0.6,0,0.9L17.9,16z"/><path d="M26.9,16l-0.8,1.6c-0.2,0.5,0,1.1,0.4,1.3C26.7,19,26.8,19,27,19c0.4,0,0.7-0.2,0.9-0.6l1-2c0.1-0.3,0.1-0.6,0-0.9    L28.1,14l0.8-1.6c0.2-0.5,0-1.1-0.4-1.3c-0.5-0.2-1.1,0-1.3,0.4l-1,2c-0.1,0.3-0.1,0.6,0,0.9L26.9,16z"/><path d="M35.9,16l-0.8,1.6c-0.2,0.5,0,1.1,0.4,1.3C35.7,19,35.8,19,36,19c0.4,0,0.7-0.2,0.9-0.6l1-2c0.1-0.3,0.1-0.6,0-0.9    L37.1,14l0.8-1.6c0.2-0.5,0-1.1-0.4-1.3c-0.5-0.2-1.1,0-1.3,0.4l-1,2c-0.1,0.3-0.1,0.6,0,0.9L35.9,16z"/><path d="M44.9,16l-0.8,1.6c-0.2,0.5,0,1.1,0.4,1.3C44.7,19,44.8,19,45,19c0.4,0,0.7-0.2,0.9-0.6l1-2c0.1-0.3,0.1-0.6,0-0.9    L46.1,14l0.8-1.6c0.2-0.5,0-1.1-0.4-1.3s-1.1,0-1.3,0.4l-1,2c-0.1,0.3-0.1,0.6,0,0.9L44.9,16z"/></g></g><g id="meat"/><g id="grill"/><g id="stove"/><g id="grilled"/></svg>